<?xml version="1.0" encoding="utf-8"?>
<!-- Generator: Adobe Illustrator 27.1.1, SVG Export Plug-In . SVG Version: 6.00 Build 0)  -->
<svg version="1.1" id="Logo" xmlns="http://www.w3.org/2000/svg" xmlns:xlink="http://www.w3.org/1999/xlink" x="0px" y="0px"
	 viewBox="0 0 708 278" style="enable-background:new 0 0 708 278;" xml:space="preserve">
<style type="text/css">
	.st0{fill-rule:evenodd;clip-rule:evenodd;fill:#ED7465;}
	.st1{fill:#2716B7;}
	.st2{opacity:0.7;}
</style>
<g>
	<g>
		<path class="st0" d="M81.4,171.9c-5.7,5.4-9.2,4.7-9.2,4.7s-16.7-3.4-17.7,4.7c-0.9,8.2,11.8,9.3,22.3,7.4
			c6.7-1.2,11.2-6.2,13.6-9.8l-0.5-0.5C87.2,175.6,84.3,173.5,81.4,171.9z"/>
		<path class="st0" d="M130.3,71.6c6.8,2.1,13,4.9,17.6,7.7c-2.1-4.2-6-9.2-11-14c-9.1-8.7-18.3-13.1-20.5-9.8
			c-1.6,2.3,0.6,7.8,5.1,13.8C124.3,69.9,127.3,70.7,130.3,71.6z"/>
		<path class="st0" d="M137.9,161.7c0,0-14.7-6.4-29.8-2.1c0,0-9.8,4.7-13.2,1.5c-3.3-3.2-2.6-8.5,5.9-15.2c0.1-0.1,0.3-0.2,0.3-0.3
			c12.9-8.5,20.4-21.9,17.2-33.1c-1.7-5.9-6-10.4-12.1-12.8c-7.6-3.1-17.8-3-28.2,1.1c-18.4,7.3-30.2,24.2-26.5,37.9
			c0.3,0.8,0.5,1.5,0.8,2.3c-3.3-3.3-4.3-2.6-6.7-2.4c-2.4,0.2-4.1-2.4-4.1-2.4c-0.8,5.6,1,12.7,5.3,18.4c3.8,5.1,8.8,8.1,13.2,8.4
			c0.8,0.1,1.7,0,2.5-0.1c5.3,0,18.5,1.1,29.9,12.6c0,0,25.3-3.9,37.9,1.3c0,0,11.5,0.6,13.7-5.8
			C146.4,164.3,137.9,161.7,137.9,161.7z"/>
		<path class="st0" d="M179.8,111.2c-4.6-10.2-16.2-21.4-26.8-22.5c0,0.1-0.1,0.2-0.1,0.3c-2.4-4.3-11.8-9.7-23.6-13.4
			c-1.1-0.4-2.3-0.7-3.4-1c0,0,0,0,0,0c0,0,0,0,0,0c-12.8-3.4-23.3-3.1-24.2,0.9c-1,4.4,9.8,11.5,24.1,15.9
			c11.1,3.4,21,4.2,25.3,2.4c-3,6.6-8.1,11.9-14.7,14.5c-5.4,2.1-10.8,2.1-15.7,0.3c0.4,0.9,0.7,1.8,1,2.7l0,0l0,0
			c1.9,6.9,0.5,14.2-2.9,20.7c-3.4,6.4-8.9,12.3-15.6,16.8l0,0l-0.3,0.2c-4,3.2-5.6,5.6-6.1,7c-0.2,0.6-0.2,1-0.1,1.1
			c0,0.2,0.2,0.5,0.5,0.8l0,0c0.1,0,0.4,0.2,1.1,0.2c1,0,2.2-0.2,3.5-0.6c1.3-0.3,2.5-0.8,3.4-1.1c0.4-0.2,0.8-0.3,1-0.4
			c0.1-0.1,0.2-0.1,0.3-0.1l0.1,0l0,0l0,0h0l0,0h0l0.3-0.1l0.3-0.1c6.1-1.8,12.1-1.9,17.2-1.4c9.3-7.5,30.3-22.2,52.9-22.5
			C177.3,131.9,184.4,121.4,179.8,111.2z"/>
	</g>
	<g>
		<path class="st1" d="M270.9,72.3c-4.8-2.8-10.3-4.2-16.5-4.2c-6.3,0-11.8,1.4-16.6,4.2c-4.8,2.7-8.6,6.5-11.4,11.4
			c-2.7,4.8-4.1,10.4-4.1,16.7c0,6.3,1.3,11.8,3.8,16.7c2.6,4.8,6,8.6,10.4,11.4c4.5,2.7,9.6,4.1,15.4,4.1c5.3,0,10.1-1.4,14.2-4.1
			c3.6-2.4,6.5-5.6,8.7-9.6v5.8c0,5-0.9,9.3-2.8,12.8c-1.9,3.5-4.4,6.1-7.5,7.9c-3.1,1.8-6.5,2.7-10.2,2.7c-4,0-7.6-0.7-10.8-2.2
			s-5.8-3.5-7.9-6.1c-0.9-1.2-2.2-2-3.7-2.3c-1.5-0.3-2.9,0-4.3,0.9c-1.2,0.9-2,2-2.3,3.4c-0.2,1.4,0.2,2.7,1.2,4.1
			c3.3,4.2,7.4,7.3,12.2,9.5c4.8,2.2,9.9,3.2,15.4,3.2c6.3,0,11.9-1.5,16.7-4.4c4.9-2.9,8.7-6.9,11.4-11.9
			c2.7-4.9,4.1-10.5,4.1-16.6v-25.1c0-6.3-1.4-11.9-4.2-16.7C279.4,78.8,275.7,75,270.9,72.3z M265.1,119.2
			c-3.1,1.9-6.7,2.8-10.7,2.8c-4,0-7.6-0.9-10.7-2.8c-3.1-1.9-5.5-4.4-7.3-7.7c-1.8-3.2-2.7-7-2.7-11.3s0.9-8,2.7-11.3
			c1.8-3.3,4.2-5.9,7.3-7.8c3.1-1.9,6.7-2.8,10.7-2.8c4,0,7.6,0.9,10.7,2.8c3.1,1.9,5.5,4.4,7.2,7.8c1.8,3.2,2.7,7,2.7,11.3
			s-0.9,8-2.7,11.3C270.6,114.8,268.2,117.4,265.1,119.2z"/>
		<path class="st1" d="M348.9,72.4c-4.8-2.9-10.2-4.3-16.2-4.3c-6,0-11.5,1.4-16.4,4.3c-4.8,2.8-8.6,6.6-11.5,11.5
			c-2.8,4.9-4.2,10.4-4.2,16.5c0,6.1,1.3,11.6,3.8,16.5c2.6,4.8,6.2,8.6,10.7,11.5c4.5,2.8,9.6,4.2,15.2,4.2
			c5.6,0,10.7-1.4,15.2-4.2c2.8-1.8,5.2-3.9,7.2-6.4v4.3c0,1.7,0.5,3.1,1.6,4.3c1.2,1.1,2.6,1.6,4.3,1.6c1.7,0,3.1-0.5,4.2-1.6
			c1.2-1.2,1.7-2.6,1.7-4.3v-25.9c0-6.1-1.4-11.6-4.3-16.5C357.5,79,353.7,75.2,348.9,72.4z M343.2,119.2c-3.1,1.9-6.6,2.8-10.6,2.8
			c-3.9,0-7.4-0.9-10.6-2.8c-3.1-1.9-5.6-4.5-7.4-7.8c-1.8-3.3-2.7-7-2.7-11.1c0-4.2,0.9-7.9,2.7-11.1c1.9-3.3,4.3-5.9,7.4-7.8
			c3.2-1.9,6.7-2.9,10.6-2.9c3.9,0,7.5,1,10.6,2.9c3.1,1.9,5.5,4.4,7.3,7.8c1.8,3.2,2.7,7,2.7,11.1c0,4.1-0.9,7.8-2.7,11.1
			C348.8,114.7,346.3,117.3,343.2,119.2z"/>
		<path class="st1" d="M400.2,120.4h-2.9c-1.7,0-3.1-0.9-4.2-2.8c-1.1-1.9-1.6-4.2-1.6-7.1V47.2c0-1.7-0.5-3.1-1.6-4.2
			c-1.1-1.1-2.5-1.6-4.2-1.6c-1.7,0-3.1,0.5-4.2,1.6c-1.1,1.1-1.6,2.5-1.6,4.2v63.3c0,4.2,0.7,7.9,2.2,11.1c1.5,3.2,3.5,5.7,6.1,7.5
			c2.6,1.9,5.6,2.8,9,2.8h0.2c2.3,0,4.2-0.5,5.7-1.6c1.5-1.1,2.2-2.5,2.2-4.2s-0.5-3.1-1.5-4.2C402.9,120.9,401.7,120.4,400.2,120.4
			z"/>
		<path class="st1" d="M434.9,120.4H432c-1.7,0-3.1-0.9-4.2-2.8c-1.1-1.9-1.6-4.2-1.6-7.1V47.2c0-1.7-0.5-3.1-1.6-4.2
			c-1.1-1.1-2.5-1.6-4.2-1.6s-3.1,0.5-4.2,1.6c-1.1,1.1-1.6,2.5-1.6,4.2v63.3c0,4.2,0.7,7.9,2.2,11.1c1.5,3.2,3.5,5.7,6.1,7.5
			s5.6,2.8,9,2.8h0.2c2.3,0,4.2-0.5,5.7-1.6s2.2-2.5,2.2-4.2s-0.5-3.1-1.5-4.2C437.7,120.9,436.5,120.4,434.9,120.4z"/>
		<path class="st1" d="M500.2,69.1c-3.3-1.4-5.8-0.5-7.3,2.8L474.3,114L453,71.8c-0.7-1.5-1.7-2.4-3-2.9c-1.3-0.5-2.7-0.5-4.2,0.1
			c-1.5,0.6-2.5,1.6-3.1,3c-0.5,1.3-0.4,2.7,0.3,4.2l26.1,49.5l-11.6,26.1c-1.5,3.3-0.6,5.8,2.8,7.3c1.1,0.5,2,0.7,2.8,0.7
			c2.1,0,3.6-1.2,4.5-3.6l35.5-79.8C504.7,73,503.7,70.6,500.2,69.1z"/>
	</g>
	<g class="st2">
		<path class="st1" d="M226.9,182.5v4.1h4.8v1.9h-4.8v4.3h5.4v1.9h-7.7v-13.9h7.7v1.9H226.9z"/>
		<path class="st1" d="M246.5,194.5h-2.3l-6.9-10.4v10.4h-2.3v-13.9h2.3l6.9,10.4v-10.4h2.3V194.5z"/>
		<path class="st1" d="M259.6,184.6c-0.4-0.7-0.9-1.2-1.5-1.6c-0.6-0.4-1.4-0.5-2.2-0.5c-0.9,0-1.7,0.2-2.5,0.6
			c-0.7,0.4-1.3,1-1.7,1.8c-0.4,0.8-0.6,1.6-0.6,2.6c0,1,0.2,1.9,0.6,2.7c0.4,0.8,1,1.3,1.7,1.8c0.7,0.4,1.5,0.6,2.5,0.6
			c1.2,0,2.2-0.3,3-1c0.8-0.7,1.2-1.6,1.4-2.8h-5.2v-1.8h7.7v1.8c-0.1,1.1-0.5,2.1-1.2,3c-0.6,0.9-1.4,1.6-2.4,2.2
			c-1,0.5-2.1,0.8-3.3,0.8c-1.3,0-2.5-0.3-3.6-0.9c-1.1-0.6-1.9-1.5-2.6-2.5c-0.6-1.1-0.9-2.3-0.9-3.7c0-1.4,0.3-2.6,0.9-3.7
			c0.6-1.1,1.5-1.9,2.6-2.5c1.1-0.6,2.3-0.9,3.6-0.9c1.5,0,2.8,0.4,3.9,1.1c1.2,0.7,2,1.8,2.5,3.1H259.6z"/>
		<path class="st1" d="M267.3,180.6v13.9H265v-13.9H267.3z"/>
		<path class="st1" d="M281.7,194.5h-2.3l-6.9-10.4v10.4h-2.3v-13.9h2.3l6.9,10.4v-10.4h2.3V194.5z"/>
		<path class="st1" d="M287,182.5v4.1h4.8v1.9H287v4.3h5.4v1.9h-7.7v-13.9h7.7v1.9H287z"/>
		<path class="st1" d="M297.5,182.5v4.1h4.8v1.9h-4.8v4.3h5.4v1.9h-7.7v-13.9h7.7v1.9H297.5z"/>
		<path class="st1" d="M313,194.5l-3.2-5.6H308v5.6h-2.3v-13.9h4.8c1.1,0,2,0.2,2.7,0.6c0.7,0.4,1.3,0.9,1.7,1.5
			c0.4,0.6,0.6,1.3,0.6,2.1c0,0.9-0.3,1.7-0.8,2.5c-0.5,0.7-1.3,1.2-2.4,1.5l3.4,5.8H313z M308,187.2h2.5c0.9,0,1.5-0.2,1.9-0.6
			c0.4-0.4,0.7-1,0.7-1.7c0-0.7-0.2-1.3-0.6-1.7c-0.4-0.4-1.1-0.6-1.9-0.6H308V187.2z"/>
		<path class="st1" d="M320.7,182.5v4.1h4.8v1.9h-4.8v4.3h5.4v1.9h-7.7v-13.9h7.7v1.9H320.7z"/>
		<path class="st1" d="M333.5,180.6c1.5,0,2.8,0.3,3.9,0.9c1.1,0.6,2,1.4,2.6,2.4c0.6,1.1,0.9,2.3,0.9,3.7c0,1.4-0.3,2.6-0.9,3.7
			c-0.6,1-1.5,1.8-2.6,2.4c-1.1,0.5-2.4,0.8-3.9,0.8h-4.5v-13.9H333.5z M333.5,192.7c1.6,0,2.9-0.4,3.7-1.3c0.9-0.9,1.3-2.1,1.3-3.7
			c0-1.6-0.4-2.9-1.3-3.8c-0.9-0.9-2.1-1.4-3.7-1.4h-2.3v10.2H333.5z"/>
		<path class="st1" d="M355.8,187.4c0.7,0.1,1.4,0.5,1.9,1.2c0.5,0.7,0.8,1.4,0.8,2.2c0,0.7-0.2,1.3-0.6,1.9c-0.4,0.6-0.9,1-1.6,1.3
			c-0.7,0.3-1.5,0.5-2.4,0.5h-5.6v-13.9h5.3c0.9,0,1.8,0.2,2.4,0.5c0.7,0.3,1.2,0.8,1.5,1.3c0.3,0.5,0.5,1.1,0.5,1.8
			c0,0.8-0.2,1.5-0.6,2C357.1,186.7,356.5,187.1,355.8,187.4z M350.6,186.5h2.8c0.7,0,1.3-0.2,1.7-0.5c0.4-0.3,0.6-0.8,0.6-1.5
			c0-0.6-0.2-1.1-0.6-1.5c-0.4-0.4-1-0.5-1.7-0.5h-2.8V186.5z M353.7,192.7c0.8,0,1.4-0.2,1.8-0.6c0.4-0.4,0.7-0.9,0.7-1.6
			c0-0.7-0.2-1.2-0.7-1.6c-0.5-0.4-1.1-0.6-1.9-0.6h-3v4.3H353.7z"/>
		<path class="st1" d="M371.3,180.6l-4.6,8.9v5h-2.3v-5l-4.6-8.9h2.5l3.2,6.8l3.2-6.8H371.3z"/>
		<path class="st1" d="M380.6,182.5v4.1h4.8v1.9h-4.8v4.3h5.4v1.9h-7.7v-13.9h7.7v1.9H380.6z"/>
		<path class="st1" d="M391.1,192.7h4.7v1.8h-7v-13.9h2.3V192.7z"/>
		<path class="st1" d="M406.1,191.7h-5.8l-1,2.8h-2.4l5-13.9h2.6l5,13.9h-2.4L406.1,191.7z M405.4,189.8l-2.3-6.5l-2.3,6.5H405.4z"
			/>
		<path class="st1" d="M416.2,194.7c-0.9,0-1.8-0.2-2.5-0.5c-0.7-0.3-1.3-0.8-1.8-1.4c-0.4-0.6-0.6-1.3-0.6-2.1h2.4
			c0.1,0.6,0.3,1.1,0.7,1.5c0.4,0.4,1,0.6,1.8,0.6c0.8,0,1.4-0.2,1.8-0.6c0.4-0.4,0.7-0.9,0.7-1.5c0-0.5-0.1-0.8-0.4-1.1
			c-0.3-0.3-0.6-0.5-1-0.7c-0.4-0.2-1-0.3-1.7-0.5c-0.9-0.2-1.6-0.5-2.2-0.7c-0.6-0.3-1-0.6-1.4-1.2c-0.4-0.5-0.6-1.2-0.6-2.1
			c0-0.8,0.2-1.5,0.6-2.1s1-1.1,1.7-1.4c0.7-0.3,1.6-0.5,2.5-0.5c1.3,0,2.5,0.3,3.3,1c0.9,0.7,1.3,1.6,1.4,2.8h-2.5
			c0-0.5-0.3-0.9-0.7-1.3c-0.4-0.4-1-0.5-1.7-0.5c-0.7,0-1.2,0.2-1.6,0.5s-0.6,0.8-0.6,1.4c0,0.4,0.1,0.8,0.4,1.1
			c0.3,0.3,0.6,0.5,1,0.6c0.4,0.2,0.9,0.3,1.6,0.5c0.9,0.3,1.7,0.5,2.2,0.8c0.6,0.3,1.1,0.6,1.5,1.2c0.4,0.5,0.6,1.2,0.6,2.1
			c0,0.7-0.2,1.4-0.6,2c-0.4,0.6-0.9,1.1-1.7,1.5C418.1,194.5,417.2,194.7,416.2,194.7z"/>
		<path class="st1" d="M432.7,180.6v1.9H429v12.1h-2.3v-12.1H423v-1.9H432.7z"/>
		<path class="st1" d="M437.3,180.6v13.9h-2.3v-13.9H437.3z"/>
		<path class="st1" d="M439.6,187.6c0-1.4,0.3-2.6,0.9-3.7c0.6-1.1,1.5-1.9,2.6-2.5c1.1-0.6,2.3-0.9,3.6-0.9c1.5,0,2.8,0.4,3.9,1.1
			c1.2,0.7,2,1.8,2.5,3.1h-2.7c-0.4-0.7-0.9-1.3-1.5-1.6c-0.6-0.4-1.4-0.5-2.2-0.5c-0.9,0-1.7,0.2-2.5,0.6c-0.7,0.4-1.3,1-1.7,1.8
			c-0.4,0.8-0.6,1.7-0.6,2.7c0,1,0.2,1.9,0.6,2.7c0.4,0.8,1,1.4,1.7,1.8c0.7,0.4,1.5,0.6,2.5,0.6c0.8,0,1.6-0.2,2.2-0.5
			c0.6-0.4,1.1-0.9,1.5-1.6h2.7c-0.5,1.3-1.4,2.4-2.5,3.1c-1.1,0.7-2.5,1.1-3.9,1.1c-1.3,0-2.5-0.3-3.6-0.9
			c-1.1-0.6-1.9-1.5-2.6-2.5C439.9,190.1,439.6,188.9,439.6,187.6z"/>
		<path class="st1" d="M460.4,194.7c-0.9,0-1.8-0.2-2.5-0.5c-0.7-0.3-1.3-0.8-1.8-1.4c-0.4-0.6-0.6-1.3-0.6-2.1h2.4
			c0.1,0.6,0.3,1.1,0.7,1.5c0.4,0.4,1,0.6,1.8,0.6c0.8,0,1.4-0.2,1.8-0.6c0.4-0.4,0.7-0.9,0.7-1.5c0-0.5-0.1-0.8-0.4-1.1
			c-0.3-0.3-0.6-0.5-1-0.7c-0.4-0.2-1-0.3-1.7-0.5c-0.9-0.2-1.6-0.5-2.2-0.7c-0.6-0.3-1-0.6-1.4-1.2c-0.4-0.5-0.6-1.2-0.6-2.1
			c0-0.8,0.2-1.5,0.6-2.1c0.4-0.6,1-1.1,1.7-1.4c0.7-0.3,1.6-0.5,2.5-0.5c1.3,0,2.5,0.3,3.3,1c0.9,0.7,1.3,1.6,1.4,2.8h-2.5
			c0-0.5-0.3-0.9-0.7-1.3c-0.4-0.4-1-0.5-1.7-0.5c-0.7,0-1.2,0.2-1.6,0.5s-0.6,0.8-0.6,1.4c0,0.4,0.1,0.8,0.4,1.1
			c0.3,0.3,0.6,0.5,1,0.6c0.4,0.2,0.9,0.3,1.6,0.5c0.9,0.3,1.7,0.5,2.2,0.8c0.6,0.3,1.1,0.6,1.5,1.2c0.4,0.5,0.6,1.2,0.6,2.1
			c0,0.7-0.2,1.4-0.6,2c-0.4,0.6-0.9,1.1-1.7,1.5C462.3,194.5,461.4,194.7,460.4,194.7z"/>
		<path class="st1" d="M470.2,180.6v8.9c0,1.1,0.3,1.9,0.8,2.4c0.6,0.5,1.3,0.8,2.3,0.8c1,0,1.8-0.3,2.3-0.8
			c0.6-0.5,0.8-1.3,0.8-2.4v-8.9h2.3v8.8c0,1.1-0.2,2.1-0.7,2.9c-0.5,0.8-1.2,1.4-2,1.8c-0.8,0.4-1.7,0.6-2.7,0.6
			c-1,0-1.9-0.2-2.7-0.6c-0.8-0.4-1.5-1-1.9-1.8c-0.5-0.8-0.7-1.7-0.7-2.9v-8.8H470.2z"/>
		<path class="st1" d="M484,180.6v13.9h-2.3v-13.9H484z"/>
		<path class="st1" d="M496,180.6v1.9h-3.7v12.1H490v-12.1h-3.7v-1.9H496z"/>
		<path class="st1" d="M500.6,182.5v4.1h4.8v1.9h-4.8v4.3h5.4v1.9h-7.7v-13.9h7.7v1.9H500.6z"/>
	</g>
	<g>
		<path class="st1" d="M288.4,216.2v20.2h-2.6v-20.2H288.4z"/>
		<path class="st1" d="M238.1,222.1c0,1.7-0.6,3.1-1.7,4.2c-1.1,1.1-2.9,1.7-5.2,1.7h-3.9v8.4h-2.6v-20.2h6.5c2.3,0,4,0.6,5.2,1.7
			C237.5,218.9,238.1,220.4,238.1,222.1z M231.1,225.8c1.5,0,2.6-0.3,3.2-1s1-1.5,1-2.7c0-2.5-1.4-3.7-4.3-3.7h-3.9v7.4H231.1z"/>
		<path class="st1" d="M253.3,231.9h-8.8l-1.6,4.5h-2.8l7.3-20.1h3l7.3,20.1H255L253.3,231.9z M252.6,229.8l-3.7-10.2l-3.7,10.2
			H252.6z"/>
		<path class="st1" d="M263.6,216.2v20.2h-2.6v-20.2H263.6z"/>
		<path class="st1" d="M278.7,236.4l-4.8-8.3h-3.2v8.3h-2.6v-20.2h6.5c1.5,0,2.8,0.3,3.9,0.8c1.1,0.5,1.9,1.2,2.4,2.1
			c0.5,0.9,0.8,1.9,0.8,3c0,1.4-0.4,2.6-1.2,3.7c-0.8,1.1-2,1.8-3.6,2.1l5.1,8.5H278.7z M270.7,226h3.9c1.4,0,2.5-0.3,3.2-1
			c0.7-0.7,1.1-1.7,1.1-2.8c0-1.2-0.4-2.1-1.1-2.8c-0.7-0.7-1.8-1-3.2-1h-3.9V226z"/>
		<path class="st1" d="M308.8,236.4h-2.6l-10.6-16.1v16.1h-2.6v-20.2h2.6l10.6,16.1v-16.1h2.6V236.4z"/>
		<path class="st1" d="M328.6,222c-0.6-1.2-1.4-2.1-2.4-2.7c-1.1-0.7-2.3-1-3.7-1c-1.4,0-2.7,0.3-3.8,1c-1.1,0.6-2,1.6-2.7,2.8
			c-0.6,1.2-1,2.6-1,4.2c0,1.6,0.3,3,1,4.2c0.7,1.2,1.5,2.1,2.7,2.8c1.1,0.6,2.4,1,3.8,1c2,0,3.6-0.6,4.9-1.8c1.3-1.2,2-2.8,2.2-4.8
			h-8.1v-2.1h10.9v2c-0.2,1.7-0.7,3.2-1.6,4.6c-0.9,1.4-2.1,2.5-3.5,3.3c-1.4,0.8-3.1,1.2-4.8,1.2c-1.9,0-3.6-0.4-5.1-1.3
			c-1.5-0.9-2.8-2.1-3.7-3.7c-0.9-1.6-1.3-3.3-1.3-5.3s0.4-3.7,1.3-5.3c0.9-1.6,2.1-2.8,3.7-3.7c1.5-0.9,3.3-1.3,5.1-1.3
			c2.1,0,4,0.5,5.7,1.6c1.7,1.1,2.9,2.6,3.6,4.5H328.6z"/>
		<path class="st1" d="M357.1,222.1c0,1.7-0.6,3.1-1.7,4.2c-1.1,1.1-2.9,1.7-5.2,1.7h-3.9v8.4h-2.6v-20.2h6.5c2.3,0,4,0.6,5.2,1.7
			C356.5,218.9,357.1,220.4,357.1,222.1z M350.1,225.8c1.5,0,2.6-0.3,3.2-1c0.7-0.6,1-1.5,1-2.7c0-2.5-1.4-3.7-4.3-3.7h-3.9v7.4
			H350.1z"/>
		<path class="st1" d="M363,218.3v6.8h7.4v2.2H363v7h8.2v2.2h-10.9v-20.2h10.9v2.2H363z"/>
		<path class="st1" d="M384.4,236.6c-1.9,0-3.6-0.4-5.1-1.3c-1.5-0.9-2.8-2.1-3.7-3.7c-0.9-1.6-1.3-3.4-1.3-5.3s0.4-3.7,1.3-5.3
			c0.9-1.6,2.1-2.8,3.7-3.7c1.5-0.9,3.3-1.3,5.1-1.3c1.9,0,3.6,0.4,5.2,1.3c1.5,0.9,2.8,2.1,3.7,3.7c0.9,1.6,1.3,3.3,1.3,5.3
			s-0.4,3.8-1.3,5.3c-0.9,1.6-2.1,2.8-3.7,3.7C388,236.2,386.3,236.6,384.4,236.6z M384.4,234.3c1.4,0,2.7-0.3,3.8-1
			c1.1-0.7,2-1.6,2.7-2.8c0.7-1.2,1-2.6,1-4.2c0-1.6-0.3-3-1-4.2c-0.6-1.2-1.5-2.2-2.6-2.8c-1.1-0.7-2.4-1-3.8-1
			c-1.4,0-2.7,0.3-3.8,1c-1.1,0.7-2,1.6-2.7,2.8c-0.6,1.2-1,2.6-1,4.2c0,1.6,0.3,3,1,4.2c0.7,1.2,1.5,2.2,2.7,2.8
			C381.7,234,383,234.3,384.4,234.3z"/>
		<path class="st1" d="M411.5,222.1c0,1.7-0.6,3.1-1.7,4.2c-1.1,1.1-2.9,1.7-5.2,1.7h-3.9v8.4H398v-20.2h6.5c2.3,0,4,0.6,5.2,1.7
			C410.9,218.9,411.5,220.4,411.5,222.1z M404.5,225.8c1.5,0,2.6-0.3,3.2-1c0.7-0.6,1-1.5,1-2.7c0-2.5-1.4-3.7-4.3-3.7h-3.9v7.4
			H404.5z"/>
		<path class="st1" d="M417.4,234.3h7.1v2.1h-9.7v-20.2h2.6V234.3z"/>
		<path class="st1" d="M430,218.3v6.8h7.4v2.2H430v7h8.2v2.2h-10.9v-20.2h10.9v2.2H430z"/>
		<path class="st1" d="M461.9,231.9h-8.8l-1.6,4.5h-2.8l7.3-20.1h3l7.3,20.1h-2.8L461.9,231.9z M461.1,229.8l-3.7-10.2l-3.7,10.2
			H461.1z"/>
		<path class="st1" d="M485.4,236.4h-2.6l-10.6-16.1v16.1h-2.6v-20.2h2.6l10.6,16.1v-16.1h2.6V236.4z"/>
		<path class="st1" d="M496.1,216.2c2.2,0,4.1,0.4,5.7,1.2c1.6,0.8,2.9,2,3.7,3.5c0.9,1.5,1.3,3.3,1.3,5.4s-0.4,3.9-1.3,5.4
			c-0.9,1.5-2.1,2.7-3.7,3.5c-1.6,0.8-3.5,1.2-5.7,1.2h-6.3v-20.2H496.1z M496.1,234.2c2.6,0,4.6-0.7,6-2.1c1.4-1.4,2.1-3.3,2.1-5.8
			c0-2.5-0.7-4.5-2.1-5.9c-1.4-1.4-3.4-2.1-5.9-2.1h-3.7v15.9H496.1z"/>
		<path class="st1" d="M531.6,222.1c0,1.7-0.6,3.1-1.7,4.2c-1.1,1.1-2.9,1.7-5.2,1.7h-3.9v8.4h-2.6v-20.2h6.5c2.3,0,4,0.6,5.2,1.7
			C531,218.9,531.6,220.4,531.6,222.1z M524.6,225.8c1.5,0,2.6-0.3,3.2-1c0.7-0.6,1-1.5,1-2.7c0-2.5-1.4-3.7-4.3-3.7h-3.9v7.4H524.6
			z"/>
		<path class="st1" d="M545.5,236.4l-4.8-8.3h-3.2v8.3h-2.6v-20.2h6.5c1.5,0,2.8,0.3,3.9,0.8c1.1,0.5,1.9,1.2,2.4,2.1
			c0.5,0.9,0.8,1.9,0.8,3c0,1.4-0.4,2.6-1.2,3.7c-0.8,1.1-2,1.8-3.6,2.1l5.1,8.5H545.5z M537.5,226h3.9c1.4,0,2.5-0.3,3.2-1
			c0.7-0.7,1.1-1.7,1.1-2.8c0-1.2-0.4-2.1-1.1-2.8c-0.7-0.7-1.8-1-3.2-1h-3.9V226z"/>
		<path class="st1" d="M561.7,236.6c-1.9,0-3.6-0.4-5.1-1.3c-1.5-0.9-2.8-2.1-3.7-3.7c-0.9-1.6-1.3-3.4-1.3-5.3s0.4-3.7,1.3-5.3
			c0.9-1.6,2.1-2.8,3.7-3.7c1.5-0.9,3.3-1.3,5.1-1.3c1.9,0,3.6,0.4,5.2,1.3c1.5,0.9,2.8,2.1,3.7,3.7c0.9,1.6,1.3,3.3,1.3,5.3
			s-0.4,3.8-1.3,5.3c-0.9,1.6-2.1,2.8-3.7,3.7C565.3,236.2,563.6,236.6,561.7,236.6z M561.7,234.3c1.4,0,2.7-0.3,3.8-1
			c1.1-0.7,2-1.6,2.7-2.8c0.7-1.2,1-2.6,1-4.2c0-1.6-0.3-3-1-4.2c-0.6-1.2-1.5-2.2-2.6-2.8c-1.1-0.7-2.4-1-3.8-1
			c-1.4,0-2.7,0.3-3.8,1c-1.1,0.7-2,1.6-2.7,2.8c-0.6,1.2-1,2.6-1,4.2c0,1.6,0.3,3,1,4.2c0.7,1.2,1.5,2.2,2.7,2.8
			C559,234,560.3,234.3,561.7,234.3z"/>
		<path class="st1" d="M581.6,216.2c2.2,0,4.1,0.4,5.7,1.2c1.6,0.8,2.9,2,3.7,3.5c0.9,1.5,1.3,3.3,1.3,5.4s-0.4,3.9-1.3,5.4
			c-0.9,1.5-2.1,2.7-3.7,3.5c-1.6,0.8-3.5,1.2-5.7,1.2h-6.3v-20.2H581.6z M581.6,234.2c2.6,0,4.6-0.7,6-2.1c1.4-1.4,2.1-3.3,2.1-5.8
			c0-2.5-0.7-4.5-2.1-5.9c-1.4-1.4-3.4-2.1-5.9-2.1H578v15.9H581.6z"/>
		<path class="st1" d="M598.4,216.2V229c0,1.8,0.4,3.1,1.3,4c0.9,0.9,2.1,1.3,3.7,1.3c1.5,0,2.8-0.4,3.6-1.3c0.9-0.9,1.3-2.2,1.3-4
			v-12.8h2.6v12.8c0,1.7-0.3,3.1-1,4.3c-0.7,1.1-1.6,2-2.8,2.6c-1.1,0.6-2.4,0.8-3.9,0.8c-1.4,0-2.7-0.3-3.9-0.8
			c-1.1-0.6-2-1.4-2.7-2.6c-0.7-1.2-1-2.6-1-4.3v-12.8H598.4z"/>
		<path class="st1" d="M614.4,226.3c0-2,0.4-3.7,1.3-5.3c0.9-1.6,2.1-2.8,3.6-3.7c1.5-0.9,3.3-1.3,5.1-1.3c2.2,0,4.1,0.5,5.8,1.6
			s2.8,2.6,3.6,4.5h-3.2c-0.6-1.2-1.4-2.2-2.4-2.8c-1-0.7-2.3-1-3.8-1c-1.4,0-2.7,0.3-3.8,1c-1.1,0.7-2,1.6-2.6,2.8
			c-0.6,1.2-1,2.6-1,4.2c0,1.6,0.3,3,1,4.2c0.6,1.2,1.5,2.1,2.6,2.8c1.1,0.7,2.4,1,3.8,1c1.5,0,2.7-0.3,3.8-1
			c1.1-0.7,1.9-1.6,2.4-2.8h3.2c-0.8,1.9-2,3.4-3.6,4.5c-1.6,1-3.6,1.6-5.8,1.6c-1.9,0-3.6-0.4-5.1-1.3c-1.5-0.9-2.7-2.1-3.6-3.7
			C614.9,230,614.4,228.2,614.4,226.3z"/>
		<path class="st1" d="M650.2,216.2v2.1h-5.5v18.1h-2.6v-18.1h-5.5v-2.1H650.2z"/>
		<path class="st1" d="M659.9,236.6c-1.3,0-2.5-0.2-3.6-0.7c-1-0.5-1.9-1.1-2.5-2c-0.6-0.9-0.9-1.8-0.9-2.9h2.8
			c0.1,0.9,0.5,1.8,1.2,2.4c0.7,0.6,1.7,1,3,1c1.3,0,2.2-0.3,3-0.9c0.7-0.6,1.1-1.5,1.1-2.4c0-0.8-0.2-1.4-0.6-1.9
			c-0.4-0.5-1-0.9-1.6-1.1c-0.6-0.3-1.5-0.5-2.6-0.8c-1.3-0.3-2.4-0.7-3.2-1c-0.8-0.3-1.5-0.9-2.1-1.6c-0.6-0.8-0.8-1.8-0.8-3
			c0-1.1,0.3-2.1,0.8-2.9c0.6-0.9,1.3-1.5,2.3-2c1-0.5,2.2-0.7,3.5-0.7c1.9,0,3.4,0.5,4.6,1.4c1.2,0.9,1.9,2.2,2.1,3.8h-2.9
			c-0.1-0.8-0.5-1.4-1.2-2c-0.7-0.6-1.7-0.9-2.8-0.9c-1.1,0-2,0.3-2.7,0.9c-0.7,0.6-1,1.4-1,2.4c0,0.7,0.2,1.3,0.6,1.8
			c0.4,0.5,0.9,0.8,1.5,1.1c0.6,0.2,1.5,0.5,2.6,0.8c1.3,0.4,2.4,0.7,3.2,1.1c0.8,0.3,1.5,0.9,2.1,1.7c0.6,0.7,0.9,1.7,0.9,3
			c0,1-0.3,1.9-0.8,2.8c-0.5,0.9-1.3,1.6-2.3,2.1C662.5,236.3,661.3,236.6,659.9,236.6z"/>
	</g>
</g>
</svg>
