<svg width="104" height="29" viewBox="0 0 104 29" fill="none" xmlns="http://www.w3.org/2000/svg">
<path fill-rule="evenodd" clip-rule="evenodd" d="M19.2064 3.71282C20.6668 4.15221 21.9723 4.74539 22.9681 5.36054C22.5034 4.48175 21.6847 3.40524 20.6225 2.39463C18.6753 0.549179 16.7281 -0.395518 16.2412 0.307513C15.9093 0.790846 16.374 1.95524 17.3476 3.22948C17.923 3.3613 18.5425 3.51509 19.2064 3.71282Z" fill="#ED7465"/>
<path fill-rule="evenodd" clip-rule="evenodd" d="M20.8219 22.8485C20.8219 22.8485 17.6798 21.4864 14.4491 22.4091C14.4491 22.4091 12.347 23.4197 11.6168 22.7386C10.9087 22.0576 11.0636 20.9371 12.8781 19.5091C12.9002 19.4871 12.9223 19.4652 12.9444 19.4432C15.7104 17.6417 17.3036 14.8076 16.6398 12.4349C16.2857 11.1826 15.3564 10.2379 14.0729 9.71061C12.4355 9.05152 10.267 9.07349 8.05422 9.95227C4.1155 11.4902 1.59295 15.0932 2.38954 17.9932C2.4338 18.1689 2.50018 18.3227 2.54444 18.4765C1.83635 17.7735 1.61508 17.9273 1.10614 17.9712C0.597203 18.0152 0.243162 17.4659 0.243162 17.4659C0.0661409 18.6742 0.464438 20.1682 1.3938 21.3765C2.21252 22.475 3.27465 23.0902 4.22614 23.1561C4.40316 23.178 4.58018 23.1561 4.7572 23.1341C5.90784 23.1341 8.71805 23.3758 11.1521 25.8144C11.1521 25.8144 16.5512 24.9795 19.2729 26.1C19.2729 26.1 21.7291 26.2318 22.1938 24.8697C22.6363 23.4197 20.8219 22.8485 20.8219 22.8485Z" fill="#ED7465"/>
<path fill-rule="evenodd" clip-rule="evenodd" d="M8.76254 25.0234C7.54552 26.1878 6.79317 26.034 6.79317 26.034C6.79317 26.034 3.20849 25.309 3.00935 27.0447C2.8102 28.7803 5.5319 29.0219 7.78892 28.6045C9.22722 28.3628 10.1787 27.2863 10.6876 26.5174L10.577 26.4075C9.97956 25.8144 9.35998 25.353 8.76254 25.0234Z" fill="#ED7465"/>
<path fill-rule="evenodd" clip-rule="evenodd" d="M29.8053 12.1273C28.8317 9.95227 26.3534 7.60151 24.0742 7.35985C24.0742 7.38182 24.0521 7.40378 24.0521 7.42575C23.5432 6.525 21.5295 5.3606 19.007 4.59166C15.9534 3.64697 13.2981 3.64697 13.0989 4.5697C12.8998 5.49242 15.201 7.00833 18.2547 7.95303C20.6223 8.67803 22.7466 8.85379 23.6759 8.45833C23.0342 9.86439 21.95 10.9848 20.5338 11.5561C19.3832 11.9955 18.2325 11.9955 17.1704 11.6C17.2589 11.7758 17.3253 11.9735 17.3695 12.1712C17.79 13.6432 17.4802 15.1811 16.75 16.5651C16.0198 17.9273 14.847 19.1576 13.4087 20.1242L13.3423 20.1682C12.4793 20.8492 12.1474 21.3545 12.0589 21.6621C12.0147 21.7939 12.0368 21.8598 12.0368 21.9038C12.0368 21.9477 12.081 21.9917 12.1474 22.0795C12.1695 22.0795 12.2359 22.1235 12.3908 22.1235C12.59 22.1235 12.8555 22.0795 13.1432 22.0136C13.4087 21.9477 13.6742 21.8379 13.8734 21.772C13.9619 21.728 14.0504 21.7061 14.0947 21.6841C14.1168 21.6621 14.1389 21.6621 14.161 21.6621H14.1832L14.2495 21.6402L14.3159 21.6182C15.6215 21.2447 16.9049 21.2227 17.9891 21.3326C19.9806 19.7508 24.4725 16.6091 29.3185 16.5432C29.2521 16.5212 30.7789 14.3023 29.8053 12.1273Z" fill="#ED7465"/>
<path d="M68.0425 10.084C67.6442 10.084 67.3123 10.2158 67.0246 10.4575C66.7591 10.7211 66.6484 11.0507 66.6484 11.4681V23.5514C66.6484 23.9469 66.7812 24.2764 67.0246 24.562C67.2901 24.8256 67.6442 24.9355 68.0425 24.9355C68.4629 24.9355 68.7948 24.8037 69.0604 24.562C69.3259 24.2984 69.4365 23.9469 69.4365 23.5514V11.4681C69.4365 11.0507 69.3038 10.7211 69.0604 10.4575C68.7948 10.2158 68.4629 10.084 68.0425 10.084Z" fill="#2716B7"/>
<path d="M51.6681 10.9849C50.606 10.3038 49.4111 9.97426 48.0834 9.97426C46.9992 9.97426 46.0034 10.194 45.0962 10.6553C44.2111 11.0947 43.4366 11.6879 42.7949 12.4568V5.11895C42.7949 4.70153 42.6622 4.37198 42.4188 4.10835C42.1532 3.84471 41.8213 3.73486 41.4009 3.73486C41.0026 3.73486 40.6707 3.86668 40.383 4.10835C40.1175 4.37198 40.0068 4.70153 40.0068 5.11895V17.5099C40.029 18.9379 40.3609 20.2341 41.0247 21.3765C41.6885 22.519 42.5736 23.4197 43.7022 24.1008C44.8307 24.7599 46.1141 25.0894 47.5302 25.0894C48.9685 25.0894 50.2519 24.7599 51.3805 24.1008C52.509 23.4197 53.4162 22.519 54.0579 21.3765C54.7439 20.2341 55.0758 18.9599 55.0758 17.5099C55.0758 16.0818 54.766 14.8076 54.1464 13.6871C53.549 12.5227 52.7302 11.622 51.6681 10.9849ZM51.7566 20.1023C51.3362 20.8712 50.7609 21.4864 50.0307 21.9477C49.3005 22.3871 48.4817 22.6068 47.5302 22.6068C46.623 22.6068 45.7822 22.3871 45.0298 21.9477C44.2996 21.4864 43.7243 20.8712 43.3039 20.1023C42.8834 19.3333 42.6843 18.4546 42.6843 17.4879C42.6843 16.4993 42.8834 15.6424 43.3039 14.8735C43.7243 14.1046 44.2996 13.5114 45.0298 13.072C45.7822 12.6106 46.6009 12.3909 47.5302 12.3909C48.4596 12.3909 49.3005 12.6106 50.0307 13.072C50.7609 13.5114 51.3362 14.1046 51.7566 14.8735C52.1992 15.6424 52.4205 16.4993 52.4205 17.4879C52.3983 18.4546 52.1992 19.3333 51.7566 20.1023Z" fill="#2716B7"/>
<path d="M62.9531 22.2334H62.2671C61.8688 22.2334 61.5369 22.0137 61.2714 21.5743C61.0058 21.1349 60.8952 20.5856 60.8952 19.9265V5.09698C60.8952 4.70153 60.7624 4.37198 60.519 4.10835C60.2535 3.84471 59.9437 3.73486 59.5233 3.73486C59.125 3.73486 58.7931 3.86668 58.5275 4.10835C58.262 4.37198 58.1514 4.67956 58.1514 5.09698V19.9265C58.1514 20.9152 58.3284 21.772 58.6824 22.5409C59.0365 23.2879 59.5233 23.8811 60.1429 24.2985C60.7624 24.7379 61.4705 24.9576 62.2671 24.9576H62.3114C62.8646 24.9576 63.3071 24.8258 63.6612 24.5841C64.0152 24.3205 64.1922 24.0129 64.1922 23.5955C64.1922 23.2 64.0816 22.8705 63.8382 22.6068C63.5948 22.3652 63.3071 22.2334 62.9531 22.2334Z" fill="#2716B7"/>
<path d="M68.0424 4.08643C67.5555 4.08643 67.113 4.26218 66.7589 4.63567C66.4049 4.98718 66.25 5.4046 66.25 5.88794C66.25 6.37127 66.427 6.81067 66.7589 7.16218C67.113 7.5137 67.5555 7.66748 68.0424 7.66748C68.5292 7.66748 68.9496 7.49173 69.3036 7.16218C69.6577 6.81067 69.8568 6.37127 69.8568 5.88794C69.8568 5.4046 69.6798 4.98718 69.3036 4.63567C68.9496 4.26218 68.5292 4.08643 68.0424 4.08643Z" fill="#2716B7"/>
<path d="M103.491 22.9803L98.2023 16.4993L103.225 12.0394C103.491 11.7758 103.646 11.4902 103.668 11.1606C103.69 10.8311 103.557 10.5455 103.314 10.2599C103.07 9.99623 102.783 9.84244 102.429 9.82047C102.097 9.7985 101.809 9.93032 101.521 10.172L94.861 16.0599V5.05305C94.861 4.65759 94.7283 4.32804 94.4849 4.10835C94.2415 3.84471 93.9317 3.73486 93.5334 3.73486C93.1351 3.73486 92.8032 3.86668 92.5376 4.10835C92.2942 4.35001 92.1836 4.65759 92.1836 5.05305V23.6174C92.1836 24.0129 92.2942 24.3424 92.5376 24.6061C92.8032 24.8477 93.113 24.9576 93.5334 24.9576C93.9317 24.9576 94.2636 24.8477 94.4849 24.6061C94.7504 24.3424 94.861 24.0349 94.861 23.6174V19.4652L96.233 18.2568L101.433 24.65C101.676 24.9356 101.964 25.0894 102.318 25.1114C102.672 25.1553 103.004 25.0455 103.314 24.8038C103.624 24.5402 103.778 24.2546 103.801 23.925C103.823 23.5955 103.712 23.2879 103.491 22.9803Z" fill="#2716B7"/>
<path d="M84.8813 10.765C83.8856 10.2158 82.7792 9.95215 81.5179 9.95215C80.323 9.95215 79.2388 10.2158 78.2651 10.7431C77.7341 11.0287 77.2694 11.3802 76.8711 11.7756V11.49C76.8711 11.0726 76.7383 10.7431 76.4949 10.4794C76.2294 10.2158 75.8975 10.1059 75.477 10.1059C75.0787 10.1059 74.7468 10.2378 74.4592 10.4794C74.1936 10.7431 74.083 11.0726 74.083 11.49V23.6173C74.083 24.0128 74.2158 24.3423 74.4592 24.6279C74.7247 24.8915 75.0787 25.0014 75.477 25.0014C75.8975 25.0014 76.2294 24.8696 76.4949 24.6279C76.7605 24.3643 76.8711 24.0128 76.8711 23.6173V15.9499C76.8711 15.2688 77.0481 14.6976 77.4243 14.1923C77.7783 13.665 78.2873 13.2476 78.9068 12.94C79.5264 12.6325 80.2124 12.4787 80.9868 12.4787C81.8277 12.4787 82.5579 12.6325 83.1996 12.962C83.8634 13.2696 84.3724 13.7529 84.7485 14.412C85.1247 15.0711 85.3239 15.9059 85.3239 16.9385V23.6173C85.3239 24.0128 85.4566 24.3423 85.7 24.6279C85.9656 24.8915 86.3196 25.0014 86.7179 25.0014C87.1162 25.0014 87.4481 24.8696 87.7137 24.6279C87.9792 24.3643 88.1341 24.0128 88.1341 23.6173V16.9385C88.1341 15.4446 87.8464 14.1703 87.249 13.1378C86.6736 12.0612 85.877 11.2923 84.8813 10.765Z" fill="#2716B7"/>
</svg>
