<svg width="288" height="85" viewBox="0 0 288 85" fill="none" xmlns="http://www.w3.org/2000/svg">
<path d="M65.9838 26.4074C66.5484 23.8415 60.1922 19.6485 51.7868 17.0419C43.3814 14.4354 36.1098 14.4025 35.5452 16.9683C34.9806 19.5342 41.3369 23.7273 49.7422 26.3338C58.1476 28.9403 65.4192 28.9733 65.9838 26.4074Z" fill="#ED7465"/>
<path fill-rule="evenodd" clip-rule="evenodd" d="M62.6474 19.2025C61.3862 16.7526 59.1027 13.7732 56.198 10.9762C50.8645 5.84028 45.4563 3.26405 44.1185 5.22202C43.1874 6.58463 44.4731 9.78417 47.1387 13.335C48.7904 13.6668 50.5298 14.1099 52.3071 14.6611C56.322 15.9061 59.9413 17.5195 62.6474 19.2025ZM63.4328 23.8208C63.6148 23.5545 63.7121 23.218 63.7309 22.8224C61.2284 20.79 56.8814 18.6233 51.7795 17.0412C51.1016 16.831 50.431 16.6375 49.7707 16.4608C50.2741 16.9994 50.8025 17.5363 51.3533 18.0666C56.6868 23.2025 62.095 25.7788 63.4328 23.8208Z" fill="#ED7465"/>
<path d="M56.7973 67.6816C56.7973 67.6816 48.158 63.8875 39.2691 66.4367C39.2691 66.4367 33.4762 69.223 31.4787 67.3259C29.5311 65.4288 29.9306 62.3461 34.9244 58.3741C34.9744 58.3148 35.0743 58.2555 35.1242 58.1963C42.7148 53.2164 47.1093 45.3317 45.2616 38.7513C44.2629 35.2535 41.716 32.6451 38.1704 31.2223C33.676 29.3845 27.6834 29.4438 21.591 31.8744C10.7544 36.1428 3.81304 46.1024 6.01031 54.165C6.16013 54.6392 6.30994 55.0542 6.45975 55.5285C4.51217 53.5721 3.91291 53.9871 2.51465 54.1057C1.11638 54.2243 0.11762 52.6829 0.11762 52.6829C-0.38176 56.0028 0.716877 60.1526 3.26372 63.5318C5.51093 66.5552 8.45728 68.2744 11.0541 68.4523C11.5534 68.5116 12.0528 68.4523 12.5023 68.393C15.6484 68.393 23.3888 69.0451 30.0805 75.8034C30.0805 75.8034 44.962 73.4914 52.4028 76.5741C52.4028 76.5741 59.1444 76.9298 60.4428 73.1357C61.7911 69.223 56.7973 67.6816 56.7973 67.6816Z" fill="#ED7465"/>
<path fill-rule="evenodd" clip-rule="evenodd" d="M23.5759 73.6628C20.2465 76.8621 18.1475 76.4565 18.1475 76.4565C18.1475 76.4565 8.30972 74.4408 7.7604 79.2428C7.21109 84.0448 14.7018 84.6969 20.8941 83.5705C24.8262 82.8929 27.4696 79.8966 28.8754 77.7995L28.6011 77.5224C26.9629 75.8679 25.2547 74.6132 23.5759 73.6628Z" fill="#ED7465"/>
<path fill-rule="evenodd" clip-rule="evenodd" d="M65.701 24.7446C71.9551 25.3996 78.7596 31.949 81.4614 37.9626C84.1632 43.9762 79.9604 50.1089 79.9604 50.1089C66.6593 50.2863 54.2737 58.9491 48.8161 63.3613C45.8274 63.0607 42.3046 63.1355 38.7107 64.1661L38.5437 64.214L38.3878 64.289C38.3881 64.2889 38.3881 64.2889 38.3877 64.2891L38.3871 64.2894L38.3866 64.2896L38.3859 64.29L38.3814 64.2921L38.3454 64.3089C38.3113 64.3248 38.2576 64.3494 38.1865 64.3812C38.0441 64.4448 37.8336 64.5361 37.573 64.6412C37.0469 64.8533 36.3408 65.1119 35.594 65.314C34.8304 65.5206 34.1164 65.6425 33.5482 65.6387C33.1004 65.6356 32.9221 65.5568 32.8872 65.5414L32.8848 65.5403C32.6746 65.325 32.6041 65.1596 32.5778 65.0572C32.5527 64.9591 32.5266 64.762 32.643 64.3978C32.9077 63.5694 33.8283 62.158 36.203 60.2692L36.3763 60.1313L36.3999 60.1033C40.3818 57.4569 43.6044 54.0132 45.6064 50.2481C47.6336 46.4356 48.4757 42.143 47.3315 38.068L47.33 38.0627L47.3285 38.0575C47.1691 37.4995 46.9784 36.9622 46.7583 36.446C49.6337 37.5022 52.8422 37.5338 55.9946 36.2955C60.8478 34.3902 64.3501 29.9842 65.701 24.7446Z" fill="#ED7465"/>
<path d="M121.703 63.0029C117.881 63.0029 114.493 62.1111 111.537 60.3276C108.632 58.4931 106.339 55.9962 104.658 52.8368C102.976 49.6264 102.135 45.9575 102.135 41.8299C102.135 37.6513 103.027 33.9824 104.811 30.823C106.645 27.6126 109.142 25.1157 112.301 23.3322C115.461 21.4977 119.104 20.5805 123.232 20.5805C127.308 20.5805 130.926 21.4977 134.086 23.3322C137.245 25.1157 139.717 27.6126 141.5 30.823C143.335 33.9824 144.252 37.6513 144.252 41.8299H139.742C139.742 45.9575 138.952 49.6264 137.373 52.8368C135.844 55.9962 133.729 58.4931 131.028 60.3276C128.328 62.1111 125.219 63.0029 121.703 63.0029ZM123.079 80.0483C119.461 80.0483 116.072 79.3349 112.913 77.9081C109.753 76.4812 107.078 74.392 104.887 71.6402C104.225 70.7739 103.97 69.8822 104.123 68.965C104.326 68.0477 104.836 67.3088 105.651 66.7483C106.569 66.1368 107.511 65.933 108.48 66.1368C109.499 66.3406 110.314 66.8502 110.925 67.6655C112.301 69.3981 114.034 70.7485 116.123 71.7167C118.212 72.6849 120.582 73.169 123.232 73.169C125.678 73.169 127.92 72.583 129.958 71.4109C132.048 70.2389 133.704 68.5063 134.927 66.2132C136.15 63.9201 136.761 61.1174 136.761 57.8052V46.9511L139.284 40.2247L144.252 41.8299V58.3402C144.252 62.3659 143.36 66.0094 141.577 69.2707C139.793 72.583 137.296 75.2073 134.086 77.1437C130.926 79.0801 127.257 80.0483 123.079 80.0483ZM123.232 56.1236C125.882 56.1236 128.226 55.5121 130.264 54.2891C132.302 53.0661 133.882 51.3845 135.003 49.2443C136.175 47.104 136.761 44.6326 136.761 41.8299C136.761 39.0272 136.175 36.5558 135.003 34.4155C133.882 32.2243 132.302 30.5172 130.264 29.2943C128.226 28.0713 125.882 27.4598 123.232 27.4598C120.582 27.4598 118.238 28.0713 116.2 29.2943C114.161 30.5172 112.556 32.2243 111.384 34.4155C110.212 36.5558 109.626 39.0272 109.626 41.8299C109.626 44.6326 110.212 47.104 111.384 49.2443C112.556 51.3845 114.161 53.0661 116.2 54.2891C118.238 55.5121 120.582 56.1236 123.232 56.1236Z" fill="#2716B7"/>
<path d="M173.283 63.0029C169.563 63.0029 166.225 62.0856 163.27 60.2512C160.314 58.3657 157.97 55.8433 156.238 52.6839C154.556 49.4736 153.715 45.8556 153.715 41.8299C153.715 37.8042 154.632 34.1862 156.467 30.9759C158.352 27.7655 160.875 25.2431 164.034 23.4086C167.244 21.5232 170.837 20.5805 174.812 20.5805C178.786 20.5805 182.353 21.5232 185.513 23.4086C188.672 25.2431 191.169 27.7655 193.004 30.9759C194.889 34.1862 195.832 37.8042 195.832 41.8299H192.851C192.851 45.8556 191.985 49.4736 190.252 52.6839C188.57 55.8433 186.252 58.3657 183.296 60.2512C180.341 62.0856 177.003 63.0029 173.283 63.0029ZM174.812 56.1236C177.411 56.1236 179.729 55.5121 181.767 54.2891C183.806 53.0151 185.411 51.3081 186.583 49.1678C187.755 46.9766 188.341 44.5307 188.341 41.8299C188.341 39.0782 187.755 36.6322 186.583 34.492C185.411 32.3008 183.806 30.5937 181.767 29.3707C179.729 28.0967 177.411 27.4598 174.812 27.4598C172.264 27.4598 169.945 28.0967 167.856 29.3707C165.818 30.5937 164.187 32.3008 162.964 34.492C161.792 36.6322 161.206 39.0782 161.206 41.8299C161.206 44.5307 161.792 46.9766 162.964 49.1678C164.187 51.3081 165.818 53.0151 167.856 54.2891C169.945 55.5121 172.264 56.1236 174.812 56.1236ZM191.934 62.7736C190.812 62.7736 189.87 62.4169 189.105 61.7035C188.392 60.9391 188.035 59.9964 188.035 58.8753V47.1805L189.488 39.0782L195.832 41.8299V58.8753C195.832 59.9964 195.45 60.9391 194.685 61.7035C193.972 62.4169 193.055 62.7736 191.934 62.7736Z" fill="#2716B7"/>
<path d="M217.372 62.6971C215.13 62.6971 213.143 62.0856 211.41 60.8626C209.677 59.6397 208.327 57.9835 207.359 55.8943C206.391 53.754 205.907 51.308 205.907 48.5563V6.82184C205.907 5.70077 206.263 4.78352 206.977 4.07011C207.69 3.3567 208.607 3 209.728 3C210.849 3 211.767 3.3567 212.48 4.07011C213.194 4.78352 213.55 5.70077 213.55 6.82184V48.5563C213.55 50.4418 213.907 51.996 214.62 53.219C215.334 54.442 216.251 55.0535 217.372 55.0535H219.283C220.302 55.0535 221.117 55.4102 221.729 56.1236C222.391 56.837 222.723 57.7542 222.723 58.8753C222.723 59.9964 222.239 60.9136 221.27 61.627C220.302 62.3404 219.054 62.6971 217.525 62.6971H217.372Z" fill="#2716B7"/>
<path d="M240.288 62.6971C238.046 62.6971 236.059 62.0856 234.326 60.8626C232.594 59.6397 231.243 57.9835 230.275 55.8943C229.307 53.754 228.823 51.308 228.823 48.5563V6.82184C228.823 5.70077 229.179 4.78352 229.893 4.07011C230.606 3.3567 231.523 3 232.645 3C233.766 3 234.683 3.3567 235.396 4.07011C236.11 4.78352 236.466 5.70077 236.466 6.82184V48.5563C236.466 50.4418 236.823 51.996 237.536 53.219C238.25 54.442 239.167 55.0535 240.288 55.0535H242.199C243.218 55.0535 244.034 55.4102 244.645 56.1236C245.308 56.837 245.639 57.7542 245.639 58.8753C245.639 59.9964 245.155 60.9136 244.186 61.627C243.218 62.3404 241.97 62.6971 240.441 62.6971H240.288Z" fill="#2716B7"/>
<path d="M260.758 81.042C260.249 81.042 259.637 80.8891 258.924 80.5833C256.682 79.5642 256.07 77.959 257.089 75.7678L280.403 23.1029C281.422 20.9626 283.027 20.3512 285.218 21.2684C287.511 22.2366 288.148 23.8418 287.129 26.0839L263.739 78.6724C263.128 80.2521 262.134 81.042 260.758 81.042ZM269.778 61.0155C268.81 61.4232 267.892 61.4741 267.026 61.1684C266.211 60.8117 265.548 60.1492 265.039 59.181L247.535 25.931C247.025 24.9628 246.949 24.0456 247.305 23.1793C247.713 22.2621 248.401 21.5996 249.369 21.192C250.337 20.7843 251.255 20.7588 252.121 21.1155C252.987 21.4213 253.65 22.0582 254.108 23.0264L270.848 56.2764C271.358 57.2446 271.536 58.1874 271.383 59.1046C271.281 59.9709 270.746 60.6079 269.778 61.0155Z" fill="#2716B7"/>
</svg>
