<svg width="10" height="10" viewBox="0 0 10 10" fill="none" xmlns="http://www.w3.org/2000/svg">
<path d="M6.06147 5.00032L9.03022 2.03157C9.17111 1.89093 9.25037 1.70007 9.25054 1.50099C9.25072 1.30191 9.1718 1.11091 9.03116 0.970012C8.89051 0.829116 8.69965 0.749862 8.50057 0.749686C8.30149 0.749511 8.11049 0.828427 7.96959 0.969074L5.00084 3.93782L2.03209 0.969074C1.8912 0.828178 1.7001 0.749023 1.50084 0.749023C1.30159 0.749023 1.11049 0.828178 0.969593 0.969074C0.828697 1.10997 0.749542 1.30107 0.749542 1.50032C0.749542 1.69958 0.828697 1.89068 0.969593 2.03157L3.93834 5.00032L0.969593 7.96907C0.828697 8.10997 0.749542 8.30107 0.749542 8.50032C0.749542 8.69958 0.828697 8.89068 0.969593 9.03157C1.11049 9.17247 1.30159 9.25163 1.50084 9.25163C1.7001 9.25163 1.8912 9.17247 2.03209 9.03157L5.00084 6.06282L7.96959 9.03157C8.11049 9.17247 8.30159 9.25163 8.50084 9.25163C8.7001 9.25163 8.8912 9.17247 9.03209 9.03157C9.17299 8.89068 9.25214 8.69958 9.25214 8.50032C9.25214 8.30107 9.17299 8.10997 9.03209 7.96907L6.06147 5.00032Z" fill="#424880"/>
</svg>
