<svg width="16" height="16" viewBox="0 0 16 16" fill="none" xmlns="http://www.w3.org/2000/svg">
<path d="M8.00033 0.666016C3.95553 0.666016 0.666992 3.95456 0.666992 7.99935C0.666992 12.0441 3.95553 15.3327 8.00033 15.3327C12.0451 15.3327 15.3337 12.0441 15.3337 7.99935C15.3337 3.95456 12.0451 0.666016 8.00033 0.666016ZM8.00033 14.1105C4.63158 14.1105 1.88921 11.3681 1.88921 7.99935C1.88921 4.6306 4.63158 1.88824 8.00033 1.88824C11.3691 1.88824 14.1114 4.6306 14.1114 7.99935C14.1114 11.3681 11.3691 14.1105 8.00033 14.1105Z" fill="#8187B9"/>
<path d="M9.24172 3.94311C8.93616 3.79797 8.48165 3.71776 8.0004 3.72158C7.30908 3.71012 6.64449 3.95075 6.13651 4.40526C5.67436 4.81776 5.38026 5.36012 5.32679 5.89484C5.29623 6.18894 5.51012 6.45248 5.80422 6.47922C6.09831 6.50977 6.36186 6.29588 6.38859 6.00179C6.43824 5.4938 7.0379 4.77193 7.98512 4.79103H8.0004C8.35561 4.78721 8.64588 4.84832 8.77574 4.90943C9.60456 5.29901 9.60456 5.82227 9.60456 5.99415C9.60456 6.68547 9.18824 6.99866 8.45109 7.49137C7.66047 8.02227 7.2747 8.69067 7.2747 9.52713C7.2747 9.82122 7.51533 10.0618 7.80942 10.0618C8.10352 10.0618 8.34415 9.82122 8.34415 9.52713C8.34415 9.17574 8.42817 8.7938 9.04692 8.3813C9.77262 7.89623 10.674 7.29276 10.674 5.99797C10.674 5.11186 10.166 4.38235 9.24172 3.94311Z" fill="#8187B9"/>
<path d="M7.77116 12.2771C8.19304 12.2771 8.53505 11.9351 8.53505 11.5132C8.53505 11.0914 8.19304 10.7493 7.77116 10.7493C7.34927 10.7493 7.00727 11.0914 7.00727 11.5132C7.00727 11.9351 7.34927 12.2771 7.77116 12.2771Z" fill="#8187B9"/>
</svg>
