<svg width="24" height="24" viewBox="0 0 24 24" fill="none" xmlns="http://www.w3.org/2000/svg">
<path fill-rule="evenodd" clip-rule="evenodd" d="M1.29128 12.1072C0.955965 11.7719 0.955965 11.2282 1.29128 10.8929L6.44306 5.74111C6.77837 5.40579 7.32203 5.40579 7.65734 5.74111C7.99266 6.07642 7.99266 6.62008 7.65734 6.95539L3.11271 11.5L7.65735 16.0447C7.99266 16.38 7.99266 16.9236 7.65735 17.2589C7.32203 17.5943 6.77838 17.5943 6.44306 17.2589L1.29128 12.1072Z" fill="#424880"/>
<path fill-rule="evenodd" clip-rule="evenodd" d="M22.7087 10.8928C23.044 11.2281 23.044 11.7718 22.7087 12.1071L17.5569 17.2589C17.2216 17.5942 16.678 17.5942 16.3427 17.2589C16.0073 16.9236 16.0073 16.3799 16.3427 16.0446L20.8873 11.5L16.3427 6.95534C16.0073 6.62002 16.0073 6.07637 16.3427 5.74105C16.678 5.40573 17.2216 5.40573 17.5569 5.74105L22.7087 10.8928Z" fill="#424880"/>
</svg>
