<svg width="14" height="14" viewBox="0 0 14 14" fill="none" xmlns="http://www.w3.org/2000/svg">
<path d="M7.00023 7C5.3471 7 3.89085 5.44687 3.75022 3.5375C3.67835 2.56875 3.97835 1.67188 4.59398 1.0125C5.20023 0.359375 6.05648 0 7.00023 0C7.93773 0 8.79086 0.3625 9.40023 1.01875C10.019 1.68437 10.319 2.57812 10.2471 3.5375C10.1065 5.44687 8.65023 7 7.00023 7ZM7.00023 1C6.33773 1 5.74085 1.24687 5.32523 1.69375C4.90335 2.14687 4.6971 2.77812 4.7471 3.46562C4.8471 4.84062 5.87835 6.00313 6.9971 6.00313C8.11586 6.00313 9.14711 4.84062 9.24711 3.46562C9.29711 2.7875 9.09086 2.15938 8.66273 1.7C8.25023 1.24688 7.65648 1 7.00023 1Z" fill="#8187B9"/>
<path d="M12.5002 13.9999H1.50023C1.20023 13.9999 0.931482 13.8749 0.743982 13.6531C0.540857 13.4093 0.459607 13.0781 0.518982 12.7437C0.781482 11.2812 1.60648 10.0499 2.90023 9.19057C4.05023 8.42494 5.50648 8.00307 7.00023 8.00307C8.49398 8.00307 9.95023 8.42494 11.1002 9.19057C12.394 10.0531 13.219 11.2812 13.4815 12.7437C13.5409 13.0781 13.4596 13.4093 13.2565 13.6531C13.069 13.8749 12.8002 13.9999 12.5002 13.9999ZM1.50648 12.9999H12.494C12.5002 12.9843 12.5034 12.9593 12.4971 12.9187C12.0127 10.2281 9.30648 8.99994 7.00023 8.99994C4.69398 8.99994 1.98773 10.2281 1.50336 12.9187C1.49711 12.9593 1.50023 12.9843 1.50648 12.9999Z" fill="#8187B9"/>
</svg>
