<svg width="31" height="29" viewBox="0 0 30 29" fill="none" xmlns="http://www.w3.org/2000/svg">
<path fill-rule="evenodd" clip-rule="evenodd" d="M19.2068 3.71282C20.6672 4.15221 21.9727 4.74539 22.9685 5.36054C22.5038 4.48175 21.6851 3.40524 20.623 2.39463C18.6757 0.549179 16.7285 -0.395518 16.2417 0.307513C15.9098 0.790846 16.3744 1.95524 17.3481 3.22948C17.9234 3.3613 18.543 3.51509 19.2068 3.71282Z" fill="#ED7465"/>
<path fill-rule="evenodd" clip-rule="evenodd" d="M20.8221 22.8485C20.8221 22.8485 17.68 21.4864 14.4494 22.4091C14.4494 22.4091 12.3472 23.4197 11.617 22.7386C10.9089 22.0576 11.0638 20.9371 12.8783 19.5091C12.9004 19.4871 12.9226 19.4652 12.9447 19.4432C15.7106 17.6417 17.3038 14.8076 16.64 12.4349C16.286 11.1826 15.3566 10.2379 14.0732 9.71061C12.4357 9.05152 10.2672 9.07349 8.05447 9.95227C4.11574 11.4902 1.59319 15.0932 2.38979 17.9932C2.43404 18.1689 2.50043 18.3227 2.54468 18.4765C1.8366 17.7735 1.61532 17.9273 1.10638 17.9712C0.597448 18.0152 0.243406 17.4659 0.243406 17.4659C0.066385 18.6742 0.464682 20.1682 1.39404 21.3765C2.21277 22.475 3.2749 23.0902 4.22639 23.1561C4.40341 23.178 4.58043 23.1561 4.75745 23.1341C5.90809 23.1341 8.7183 23.3758 11.1523 25.8144C11.1523 25.8144 16.5515 24.9795 19.2732 26.1C19.2732 26.1 21.7294 26.2318 22.194 24.8697C22.6366 23.4197 20.8221 22.8485 20.8221 22.8485Z" fill="#ED7465"/>
<path fill-rule="evenodd" clip-rule="evenodd" d="M8.76254 25.0234C7.54552 26.1878 6.79317 26.034 6.79317 26.034C6.79317 26.034 3.20849 25.309 3.00935 27.0447C2.8102 28.7803 5.5319 29.0219 7.78892 28.6045C9.22722 28.3628 10.1787 27.2863 10.6876 26.5174L10.577 26.4075C9.97956 25.8144 9.35998 25.353 8.76254 25.0234Z" fill="#ED7465"/>
<path fill-rule="evenodd" clip-rule="evenodd" d="M29.806 12.1273C28.8323 9.95227 26.354 7.60151 24.0749 7.35985C24.0749 7.38182 24.0528 7.40378 24.0528 7.42575C23.5438 6.525 21.5302 5.3606 19.0077 4.59166C15.954 3.64697 13.2987 3.64697 13.0996 4.5697C12.9004 5.49242 15.2017 7.00833 18.2553 7.95303C20.623 8.67803 22.7472 8.85379 23.6766 8.45833C23.0349 9.86439 21.9506 10.9848 20.5345 11.5561C19.3838 11.9955 18.2332 11.9955 17.1711 11.6C17.2596 11.7758 17.326 11.9735 17.3702 12.1712C17.7906 13.6432 17.4809 15.1811 16.7506 16.5651C16.0204 17.9273 14.8477 19.1576 13.4094 20.1242L13.343 20.1682C12.48 20.8492 12.1481 21.3545 12.0596 21.6621C12.0153 21.7939 12.0375 21.8598 12.0375 21.9038C12.0375 21.9477 12.0817 21.9917 12.1481 22.0795C12.1702 22.0795 12.2366 22.1235 12.3915 22.1235C12.5906 22.1235 12.8562 22.0795 13.1438 22.0136C13.4094 21.9477 13.6749 21.8379 13.874 21.772C13.9626 21.728 14.0511 21.7061 14.0953 21.6841C14.1175 21.6621 14.1396 21.6621 14.1617 21.6621H14.1838L14.2502 21.6402L14.3166 21.6182C15.6221 21.2447 16.9055 21.2227 17.9898 21.3326C19.9813 19.7508 24.4732 16.6091 29.3192 16.5432C29.2528 16.5212 30.7796 14.3023 29.806 12.1273Z" fill="#ED7465"/>
</svg>
