<svg width="26" height="12" viewBox="0 0 26 12" fill="none" xmlns="http://www.w3.org/2000/svg">
<path d="M20.7489 1.3738C20.2607 0.885646 19.4693 0.885647 18.9811 1.3738C18.493 1.86196 18.493 2.65341 18.9811 3.14157L20.5587 4.71912L5.38197 4.7199L6.9603 3.14157C7.44845 2.65341 7.44845 1.86196 6.9603 1.3738C6.47214 0.885647 5.68068 0.885646 5.19253 1.3738L1.48022 5.08611C0.992063 5.57427 0.992063 6.36572 1.48022 6.85388L5.19253 10.5662C5.68068 11.0543 6.47214 11.0543 6.9603 10.5662C7.44845 10.078 7.44845 9.28658 6.9603 8.79842L5.38177 7.2199L20.5604 7.21912L18.9811 8.79842C18.493 9.28658 18.493 10.078 18.9811 10.5662C19.4693 11.0543 20.2607 11.0543 20.7489 10.5662L24.4612 6.85388C24.9493 6.36572 24.9493 5.57427 24.4612 5.08611L20.7489 1.3738Z" fill="black" stroke="#FFFEFE" stroke-linecap="round" stroke-linejoin="round"/>
</svg>
